<?xml version="1.0" encoding="utf-8"?>
<!-- Generator: Adobe Illustrator 16.0.0, SVG Export Plug-In . SVG Version: 6.00 Build 0)  -->
<!DOCTYPE svg PUBLIC "-//W3C//DTD SVG 1.1//EN" "http://www.w3.org/Graphics/SVG/1.1/DTD/svg11.dtd">
<svg version="1.1" id="Layer_1" xmlns="http://www.w3.org/2000/svg" xmlns:xlink="http://www.w3.org/1999/xlink" x="0px" y="0px"
	 width="472.667px" height="167.333px" viewBox="0 0 472.667 167.333" enable-background="new 0 0 472.667 167.333"
	 xml:space="preserve">
<polygon fill="#87C040" points="220.751,130.026 321.652,130.026 321.652,148.406 220.751,148.406 "/>
<polygon fill="#B7263C" points="118.863,130.026 215.709,130.026 215.709,148.406 118.863,148.406 "/>
<polygon fill="#0B89A3" points="215.708,130.026 220.751,130.026 220.751,148.406 215.708,148.406 "/>
<polygon fill="#87C040" points="214.094,93.707 302.371,93.707 302.371,112.085 214.094,112.085 "/>
<polygon fill="#B7263C" points="118.863,93.707 209.252,93.707 209.252,112.085 118.863,112.085 "/>
<polygon fill="#0B89A3" points="209.15,93.707 214.194,93.707 214.194,112.085 209.15,112.085 "/>
<polygon fill="#CA2033" points="8.343,83.831 8.343,89.12 13.632,89.12 13.632,83.831 "/>
<polygon fill="#93C840" points="8.687,107.478 8.687,112.767 13.975,112.767 13.975,107.478 "/>
<polygon fill="#0B89A3" points="8.929,131.39 8.929,136.796 15.161,136.796 15.161,131.39 "/>
<text transform="matrix(1 0 0 1 18.3223 88.2207)" fill="#828285" font-family="'MyriadPro-Regular'" font-size="6.6081">Eligible</text>
<text transform="matrix(1 0 0 1 39.2939 88.2207)" fill="#828285" font-family="'MyriadPro-Regular'" font-size="6.6081"> St</text>
<text transform="matrix(1 0 0 1 46.2529 88.2207)" fill="#828285" font-family="'MyriadPro-Regular'" font-size="6.6081">udents</text>
<text transform="matrix(1 0 0 1 66.0332 88.2207)" fill="#828285" font-family="'MyriadPro-Regular'" font-size="6.6081"> </text>
<text transform="matrix(1 0 0 1 67.4424 88.2207)" fill="#828285" font-family="'MyriadPro-Regular'" font-size="6.6081">Wh</text>
<text transform="matrix(1 0 0 1 76.9658 88.2207)" fill="#828285" font-family="'MyriadPro-Regular'" font-size="6.6081">o</text>
<text transform="matrix(1 0 0 1 80.5947 88.2207)" fill="#CF4742" font-family="'MyriadPro-Regular'" font-size="6.6081"> </text>
<text transform="matrix(1 0 0 1 18.3223 95.9268)" fill="#CF4742" font-family="'MyriadPro-Regular'" font-size="6.6081">Do</text>
<text transform="matrix(1 0 0 1 26.5107 95.9268)" fill="#CF4742" font-family="'MyriadPro-Regular'" font-size="6.6081"> </text>
<text transform="matrix(1 0 0 1 27.9189 95.9268)" fill="#CF4742" font-family="'MyriadPro-Regular'" font-size="6.6081">No</text>
<text transform="matrix(1 0 0 1 36.1455 95.9268)" fill="#CF4742" font-family="'MyriadPro-Regular'" font-size="6.6081">t E</text>
<text transform="matrix(1 0 0 1 43.0479 95.9268)" fill="#CF4742" font-family="'MyriadPro-Regular'" font-size="6.6081">nroll</text>
<text transform="matrix(1 0 0 1 18.3223 111.8779)" fill="#828285" font-family="'MyriadPro-Regular'" font-size="6.6081">Eligible</text>
<text transform="matrix(1 0 0 1 39.2939 111.8779)" fill="#828285" font-family="'MyriadPro-Regular'" font-size="6.6081"> St</text>
<text transform="matrix(1 0 0 1 46.2529 111.8779)" fill="#828285" font-family="'MyriadPro-Regular'" font-size="6.6081">udents</text>
<text transform="matrix(1 0 0 1 66.0332 111.8779)" fill="#828285" font-family="'MyriadPro-Regular'" font-size="6.6081"> </text>
<text transform="matrix(1 0 0 1 67.4424 111.8779)" fill="#828285" font-family="'MyriadPro-Regular'" font-size="6.6081">Wh</text>
<text transform="matrix(1 0 0 1 76.9658 111.8779)" fill="#828285" font-family="'MyriadPro-Regular'" font-size="6.6081">o</text>
<text transform="matrix(1 0 0 1 80.5947 111.8779)" fill="#49494B" font-family="'MyriadPro-Regular'" font-size="6.6081"> </text>
<text transform="matrix(1 0 0 1 18.3223 119.584)" fill="#A0CD55" font-family="'MyriadPro-Regular'" font-size="6.6081">Do</text>
<text transform="matrix(1 0 0 1 26.5107 119.584)" fill="#A0CD55" font-family="'MyriadPro-Regular'" font-size="6.6081"> E</text>
<text transform="matrix(1 0 0 1 31.2373 119.584)" fill="#A0CD55" font-family="'MyriadPro-Regular'" font-size="6.6081">nroll</text>
<text transform="matrix(1 0 0 1 124.9395 105.3691)" fill="#FFFFFF" font-family="'MyriadPro-Regular'" font-size="6.6081">29</text>
<text transform="matrix(1 0 0 1 132.0303 105.3691)" fill="#FFFFFF" font-family="'MyriadPro-Regular'" font-size="6.6081">,5</text>
<text transform="matrix(1 0 0 1 137.1553 105.3691)" fill="#FFFFFF" font-family="'MyriadPro-Regular'" font-size="6.6081">16</text>
<text transform="matrix(1 0 0 1 144.0674 105.3691)" fill="#FFFFFF" font-family="'MyriadPro-Regular'" font-size="6.6081"> (5</text>
<text transform="matrix(1 0 0 1 151.3281 105.3691)" fill="#FFFFFF" font-family="'MyriadPro-Regular'" font-size="6.6081">4%</text>
<text transform="matrix(1 0 0 1 160.2256 105.3691)" fill="#FFFFFF" font-family="'MyriadPro-Regular'" font-size="6.6081">)</text>
<text transform="matrix(1 0 0 1 124.9395 141.709)" fill="#FFFFFF" font-family="'MyriadPro-Regular'" font-size="6.6081">33</text>
<text transform="matrix(1 0 0 1 132.0498 141.709)" fill="#FFFFFF" font-family="'MyriadPro-Regular'" font-size="6.6081">,2</text>
<text transform="matrix(1 0 0 1 137.4102 141.709)" fill="#FFFFFF" font-family="'MyriadPro-Regular'" font-size="6.6081">90</text>
<text transform="matrix(1 0 0 1 144.6914 141.709)" fill="#FFFFFF" font-family="'MyriadPro-Regular'" font-size="6.6081"> (5</text>
<text transform="matrix(1 0 0 1 151.7354 141.709)" fill="#FFFFFF" font-family="'MyriadPro-Regular'" font-size="6.6081">5%</text>
<text transform="matrix(1 0 0 1 160.6143 141.709)" fill="#FFFFFF" font-family="'MyriadPro-Regular'" font-size="6.6081">)</text>
<text transform="matrix(1 0 0 1 219.8418 105.3691)" fill="#FFFFFF" font-family="'MyriadPro-Regular'" font-size="6.6081">20</text>
<text transform="matrix(1 0 0 1 227.0742 105.3691)" fill="#FFFFFF" font-family="'MyriadPro-Regular'" font-size="6.6081">,8</text>
<text transform="matrix(1 0 0 1 232.4453 105.3691)" fill="#FFFFFF" font-family="'MyriadPro-Regular'" font-size="6.6081">96</text>
<text transform="matrix(1 0 0 1 239.7158 105.3691)" fill="#FFFFFF" font-family="'MyriadPro-Regular'" font-size="6.6081"> (3</text>
<text transform="matrix(1 0 0 1 246.9395 105.3691)" fill="#FFFFFF" font-family="'MyriadPro-Regular'" font-size="6.6081">8%</text>
<text transform="matrix(1 0 0 1 255.9229 105.3691)" fill="#FFFFFF" font-family="'MyriadPro-Regular'" font-size="6.6081">)</text>
<text transform="matrix(1 0 0 1 226.9238 141.4414)" fill="#FFFFFF" font-family="'MyriadPro-Regular'" font-size="6.6081">22,6</text>
<text transform="matrix(1 0 0 1 239.4453 141.4414)" fill="#FFFFFF" font-family="'MyriadPro-Regular'" font-size="6.6081">22</text>
<text transform="matrix(1 0 0 1 246.6377 141.4414)" fill="#FFFFFF" font-family="'MyriadPro-Regular'" font-size="6.6081"> (3</text>
<text transform="matrix(1 0 0 1 253.8516 141.4414)" fill="#FFFFFF" font-family="'MyriadPro-Regular'" font-size="6.6081">8%</text>
<text transform="matrix(1 0 0 1 262.834 141.4414)" fill="#FFFFFF" font-family="'MyriadPro-Regular'" font-size="6.6081">)</text>
<text transform="matrix(1 0 0 1 218.5459 88.0225)" fill="#828285" font-family="'MyriadPro-Regular'" font-size="6.6081">54,4</text>
<text transform="matrix(1 0 0 1 230.1572 88.0225)" fill="#828285" font-family="'MyriadPro-Regular'" font-size="6.6081">12</text>
<text transform="matrix(1 0 0 1 236.6055 88.0225)" fill="#828285" font-family="'MyriadPro-Regular'" font-size="6.6081"> </text>
<text transform="matrix(1 0 0 1 238.0049 88.0225)" fill="#828285" font-family="'MyriadPro-Regular'" font-size="6.6081">Eligible</text>
<text transform="matrix(1 0 0 1 258.9766 88.0225)" fill="#828285" font-family="'MyriadPro-Regular'" font-size="6.6081"> Pr</text>
<text transform="matrix(1 0 0 1 266.21 88.0225)" fill="#828285" font-family="'MyriadPro-Regular'" font-size="6.6081">e-</text>
<text transform="matrix(1 0 0 1 272.0537 88.0225)" fill="#828285" font-family="'MyriadPro-Regular'" font-size="6.6081">K St</text>
<text transform="matrix(1 0 0 1 282.5967 88.0225)" fill="#828285" font-family="'MyriadPro-Regular'" font-size="6.6081">udents</text>
<text transform="matrix(1 0 0 1 118.8594 88.0225)" fill="#828285" font-family="'MyriadPro-Regular'" font-size="6.6081">20</text>
<text transform="matrix(1 0 0 1 125.5381 88.0225)" fill="#828285" font-family="'MyriadPro-Regular'" font-size="6.6081">11</text>
<text transform="matrix(1 0 0 1 131.6992 88.0225)" fill="#828285" font-family="'MyriadPro-Regular'" font-size="6.6081">-2</text>
<text transform="matrix(1 0 0 1 136.9854 88.0225)" fill="#828285" font-family="'MyriadPro-Regular'" font-size="6.6081">01</text>
<text transform="matrix(1 0 0 1 143.2725 88.0225)" fill="#828285" font-family="'MyriadPro-Regular'" font-size="6.6081">2</text>
<text transform="matrix(1 0 0 1 237.835 125.125)" fill="#828285" font-family="'MyriadPro-Regular'" font-size="6.6081">59</text>
<text transform="matrix(1 0 0 1 244.4473 125.125)" fill="#828285" font-family="'MyriadPro-Regular'" font-size="6.6081">,9</text>
<text transform="matrix(1 0 0 1 249.0771 125.125)" fill="#828285" font-family="'MyriadPro-Regular'" font-size="6.6081">12</text>
<text transform="matrix(1 0 0 1 255.5068 125.125)" fill="#828285" font-family="'MyriadPro-Regular'" font-size="6.6081"> </text>
<text transform="matrix(1 0 0 1 256.9248 125.125)" fill="#828285" font-family="'MyriadPro-Regular'" font-size="6.6081">Eligible</text>
<text transform="matrix(1 0 0 1 277.8867 125.125)" fill="#828285" font-family="'MyriadPro-Regular'" font-size="6.6081"> Pr</text>
<text transform="matrix(1 0 0 1 285.1104 125.125)" fill="#828285" font-family="'MyriadPro-Regular'" font-size="6.6081">e-</text>
<text transform="matrix(1 0 0 1 290.9639 125.125)" fill="#828285" font-family="'MyriadPro-Regular'" font-size="6.6081">K St</text>
<text transform="matrix(1 0 0 1 301.5059 125.125)" fill="#828285" font-family="'MyriadPro-Regular'" font-size="6.6081">udents</text>
<text transform="matrix(1 0 0 1 118.8594 125.125)" fill="#828285" font-family="'MyriadPro-Regular'" font-size="6.6081">20</text>
<text transform="matrix(1 0 0 1 125.5381 125.125)" fill="#828285" font-family="'MyriadPro-Regular'" font-size="6.6081">12</text>
<text transform="matrix(1 0 0 1 131.9863 125.125)" fill="#828285" font-family="'MyriadPro-Regular'" font-size="6.6081">-2</text>
<text transform="matrix(1 0 0 1 137.2686 125.125)" fill="#828285" font-family="'MyriadPro-Regular'" font-size="6.6081">01</text>
<text transform="matrix(1 0 0 1 143.5947 125.125)" fill="#828285" font-family="'MyriadPro-Regular'" font-size="6.6081">3</text>
<text transform="matrix(1 0 0 1 348.7646 97.0518)" fill="#CA2033" font-family="'MyriadPro-Regular'" font-size="8.8108">3,77</text>
<text transform="matrix(1 0 0 1 362.8994 97.0518)" fill="#CA2033" font-family="'MyriadPro-Regular'" font-size="8.8108">4 </text>
<text transform="matrix(1 0 0 1 368.8369 97.0518)" fill="#CA2033" font-family="'MyriadPro-Regular'" font-size="8.8108">more</text>
<text transform="matrix(1 0 0 1 387.7666 97.0518)" fill="#CA2033" font-family="'MyriadPro-Regular'" font-size="8.8108"> </text>
<text transform="matrix(1 0 0 1 389.4219 97.0518)" fill="#828285" font-family="'MyriadPro-Regular'" font-size="8.8108">eligible</text>
<text transform="matrix(1 0 0 1 417.2012 97.0518)" fill="#828285" font-family="'MyriadPro-Regular'" font-size="8.8108"> </text>
<text transform="matrix(1 0 0 1 419.0635 97.0518)" fill="#828285" font-family="'MyriadPro-Regular'" font-size="8.8108">studen</text>
<text transform="matrix(1 0 0 1 445.2451 97.0518)" fill="#828285" font-family="'MyriadPro-Regular'" font-size="8.8108">ts</text>
<text transform="matrix(1 0 0 1 451.8389 97.0518)" fill="#828285" font-family="'MyriadPro-Regular'" font-size="8.8108"> </text>
<text transform="matrix(1 0 0 1 348.7646 108.6123)" fill="#828285" font-family="'MyriadPro-Regular'" font-size="8.8108">did not enroll in public or</text>
<text transform="matrix(1 0 0 1 443.165 108.6123)" fill="#828285" font-family="'MyriadPro-Regular'" font-size="8.8108"> </text>
<text transform="matrix(1 0 0 1 348.7646 120.1699)" fill="#828285" font-family="'MyriadPro-Regular'" font-size="8.8108">ac</text>
<text transform="matrix(1 0 0 1 357.0654 120.1699)" fill="#828285" font-family="'MyriadPro-Regular'" font-size="8.8108">cre</text>
<text transform="matrix(1 0 0 1 368.6484 120.1699)" fill="#828285" font-family="'MyriadPro-Regular'" font-size="8.8108">dited Pr</text>
<text transform="matrix(1 0 0 1 397.9121 120.1699)" fill="#828285" font-family="'MyriadPro-Regular'" font-size="8.8108">e-</text>
<text transform="matrix(1 0 0 1 405.6182 120.1699)" fill="#828285" font-family="'MyriadPro-Regular'" font-size="8.8108">K in 20</text>
<text transform="matrix(1 0 0 1 429.9463 120.1699)" fill="#828285" font-family="'MyriadPro-Regular'" font-size="8.8108">13</text>
<text transform="matrix(1 0 0 1 438.5225 120.1699)" fill="#828285" font-family="'MyriadPro-Regular'" font-size="8.8108"> vs</text>
<text transform="matrix(1 0 0 1 448.2051 120.1699)" fill="#828285" font-family="'MyriadPro-Regular'" font-size="8.8108"> </text>
<text transform="matrix(1 0 0 1 348.7646 131.7432)" fill="#828285" font-family="'MyriadPro-Regular'" font-size="8.8108">20</text>
<text transform="matrix(1 0 0 1 357.5566 131.7432)" fill="#828285" font-family="'MyriadPro-Regular'" font-size="8.8108">12</text>
<text transform="matrix(1 0 0 1 366.2373 131.7432)" fill="#828285" font-family="'MyriadPro-Regular'" font-size="8.8108">. </text>
<text transform="matrix(1 0 0 1 18.3223 135.7813)" fill="#828285" font-family="'MyriadPro-Regular'" font-size="6.6081">St</text>
<text transform="matrix(1 0 0 1 23.8818 135.7813)" fill="#828285" font-family="'MyriadPro-Regular'" font-size="6.6081">udents</text>
<text transform="matrix(1 0 0 1 43.6621 135.7813)" fill="#828285" font-family="'MyriadPro-Regular'" font-size="6.6081"> e</text>
<text transform="matrix(1 0 0 1 48.4863 135.7813)" fill="#828285" font-family="'MyriadPro-Regular'" font-size="6.6081">nroll</text>
<text transform="matrix(1 0 0 1 61.6172 135.7813)" fill="#828285" font-family="'MyriadPro-Regular'" font-size="6.6081">ed</text>
<text transform="matrix(1 0 0 1 68.8223 135.7813)" fill="#828285" font-family="'MyriadPro-Regular'" font-size="6.6081"> </text>
<text transform="matrix(1 0 0 1 70.2227 135.7813)" fill="#828285" font-family="'MyriadPro-Regular'" font-size="6.6081">in</text>
<text transform="matrix(1 0 0 1 75.5361 135.7813)" fill="#49494B" font-family="'MyriadPro-Regular'" font-size="6.6081"> </text>
<text transform="matrix(1 0 0 1 18.3223 143.4873)" fill="#0492AB" font-family="'MyriadPro-Regular'" font-size="6.6081">Head</text>
<text transform="matrix(1 0 0 1 33.2441 143.4873)" fill="#0492AB" font-family="'MyriadPro-Regular'" font-size="6.6081"> St</text>
<text transform="matrix(1 0 0 1 40.2578 143.4873)" fill="#0492AB" font-family="'MyriadPro-Regular'" font-size="6.6081">ar</text>
<text transform="matrix(1 0 0 1 45.9873 143.4873)" fill="#0492AB" font-family="'MyriadPro-Regular'" font-size="6.6081">t/</text>
<text transform="matrix(1 0 0 1 50.499 143.4873)" fill="#0492AB" font-family="'MyriadPro-Regular'" font-size="6.6081">Accre</text>
<text transform="matrix(1 0 0 1 66.3838 143.4873)" fill="#0492AB" font-family="'MyriadPro-Regular'" font-size="6.6081">dite</text>
<text transform="matrix(1 0 0 1 77.6064 143.4873)" fill="#0492AB" font-family="'MyriadPro-Regular'" font-size="6.6081">d </text>
<text transform="matrix(1 0 0 1 18.3223 151.1924)" fill="#0492AB" font-family="'MyriadPro-Regular'" font-size="6.6081">Ce</text>
<text transform="matrix(1 0 0 1 25.6309 151.1924)" fill="#0492AB" font-family="'MyriadPro-Regular'" font-size="6.6081">nter</text>
<text transform="matrix(1 0 0 1 37.3838 151.1924)" fill="#0492AB" font-family="'MyriadPro-Regular'" font-size="6.6081">s</text>
<path fill="#CA2033" d="M172.378,160.765h3.325v-1.1h-3.325V160.765z M177.928,160.765h3.326v-1.1h-3.326V160.765z M183.478,160.765
	h3.326v-1.1h-3.326V160.765z M189.028,160.765h3.325v-1.1h-3.325V160.765z M194.578,160.765h3.326v-1.1h-3.326V160.765z
	 M200.129,160.765h3.326v-1.1h-3.326V160.765z M205.679,160.765h3.326v-1.1h-3.326V160.765z M211.229,160.765h3.325v-1.1h-3.325
	V160.765z M216.779,160.765h3.326v-1.1h-3.326V160.765z M222.33,160.765h3.326v-1.1h-3.326V160.765z M227.88,160.765h3.325v-1.1
	h-3.325V160.765z M233.431,160.765h3.325v-1.1h-3.325V160.765z M238.981,160.765h3.324v-1.1h-3.324V160.765z M244.532,160.765h3.326
	v-1.1h-3.326V160.765z M250.082,160.765h3.325v-1.1h-3.325V160.765L250.082,160.765z M255.632,160.765h3.326v-1.1h-3.326V160.765z
	 M261.183,160.765h3.326v-1.1h-3.326V160.765z M266.733,160.765h3.324v-1.1h-3.324V160.765z M272.282,160.765h3.326v-1.1h-3.326
	V160.765z M277.833,160.765h3.326v-1.1h-3.326V160.765z M283.384,160.765h3.326v-1.1h-3.326V160.765z M288.935,160.765h3.324v-1.1
	h-3.324V160.765z M294.483,160.765h3.326v-1.1h-3.326V160.765z M300.034,160.765h3.326v-1.1h-3.326V160.765z M305.585,160.765h3.326
	v-1.1h-3.326V160.765z M311.136,160.765h3.324v-1.1h-3.324V160.765z M316.686,160.765h3.325v-1.1h-3.325V160.765z M322.236,160.765
	h3.325v-1.1h-3.325V160.765z M327.787,160.765h3.325v-1.1h-3.325V160.765z M333.336,160.765h3.326v-1.1h-3.326V160.765z
	 M338.887,160.765h3.326v-1.1h-3.326V160.765z M344.437,160.765h3.326v-1.1h-3.326V160.765z M349.988,160.765h3.325v-1.1h-3.325
	V160.765z M355.537,160.765h3.326v-1.1h-3.326V160.765z M361.088,160.765h3.326v-1.1h-3.326V160.765z M366.639,160.765h3.325v-1.1
	h-3.325V160.765z"/>
<path fill="#CA2033" d="M374.402,156.591v-3.152H373.3v3.152H374.402z M374.402,151.388v-3.152H373.3v3.152H374.402z
	 M374.402,146.185v-3.149H373.3v3.149H374.402z"/>
<path fill="#CA2033" d="M167.939,155.073v1.562h1.102v-1.562H167.939z M167.939,158.655v1.561v0.549h2.214v-1.1h-1.112v-1.01
	H167.939L167.939,158.655z M372.188,160.765h2.214v-2.125H373.3v1.025h-1.111v1.102V160.765z M374.402,140.985v-1.576H373.3v1.576
	H374.402z"/>
<text transform="matrix(1 0 0 1 7.4863 26.665)"><tspan x="0" y="0" fill="#939598" font-family="'Calibri-Bold'" font-size="10">Thousands of children are missing out on the opportunity to enter school ready to learn. Though more children </tspan><tspan x="0" y="12" fill="#939598" font-family="'Calibri-Bold'" font-size="10">overall enrolled in Pre-K, the percent of eligible 3-year and 4-year olds accessing public and accredited private</tspan><tspan x="0" y="24" fill="#939598" font-family="'Calibri-Bold'" font-size="10">Pre-K actually fell 1%. That means over 33,000 eligible children are potentially not receiving the education</tspan><tspan x="0" y="36" fill="#939598" font-family="'Calibri-Bold'" font-size="10">to prepare them to enter Kindergarten ready to succeed</tspan><tspan x="233.052" y="36" fill="#939598" font-family="'Calibri'" font-size="10">.</tspan></text>
<text transform="matrix(1 0 0 1 7.4863 12.665)" fill="#00AEEF" font-family="'Calibri'" font-size="10">Our Community’s Pre-K Gap is Widening, Not Closing</text>
</svg>
