<?xml version="1.0" encoding="utf-8"?>
<!-- Generator: Adobe Illustrator 16.0.0, SVG Export Plug-In . SVG Version: 6.00 Build 0)  -->
<!DOCTYPE svg PUBLIC "-//W3C//DTD SVG 1.1//EN" "http://www.w3.org/Graphics/SVG/1.1/DTD/svg11.dtd">
<svg version="1.1" id="Layer_1" xmlns="http://www.w3.org/2000/svg" xmlns:xlink="http://www.w3.org/1999/xlink" x="0px" y="0px"
	 width="612px" height="452px" viewBox="0 0 612 452" enable-background="new 0 0 612 452" xml:space="preserve">
<g>
	<g>
		<defs>
			<polygon id="SVGID_1_" points="559.355,8 560.022,447.334 51.667,447.334 51,8 559.355,8 			"/>
		</defs>
		<clipPath id="SVGID_2_">
			<use xlink:href="#SVGID_1_"  overflow="visible"/>
		</clipPath>
		<path clip-path="url(#SVGID_2_)" fill="none" stroke="#F9B543" stroke-width="1.0255" stroke-miterlimit="10" d="M460.515,3.436
			C456.655,4.014,452.813,4.839,449,6C452.813,4.839,456.655,4.014,460.515,3.436C413.084-94.508,314.428-161.852,200.39-161.852
			c-160.258,0-290.173,132.976-290.173,297.009c0,86.996,36.545,165.253,94.776,219.573C8.2,331.904,16.87,306.071,3,287
			c13.87,19.071,5.2,44.904,1.993,67.73c51.564,48.103,120.133,77.436,195.397,77.436c160.258,0,290.174-132.977,290.174-297.009
			C490.564,87.848,479.739,43.133,460.515,3.436z"/>
		<path clip-path="url(#SVGID_2_)" fill="none" stroke="#178DA3" stroke-width="1.0255" stroke-miterlimit="10" d="M472.946,2.347
			C464.9,2.609,456.892,3.598,449,6C456.892,3.598,464.9,2.609,472.946,2.347c-47.192-98.626-146.208-166.545-260.734-166.545
			c-160.259,0-290.174,132.975-290.174,297.009c0,81.991,32.459,156.222,84.941,209.966C10.507,323.246,14.492,302.802,3,287
			c11.492,15.802,7.507,36.246,3.979,55.776c52.515,53.777,125.078,87.042,205.232,87.042
			c160.259,0,290.173-132.975,290.173-297.008C502.385,86,491.791,41.729,472.946,2.347z"/>
		<path clip-path="url(#SVGID_2_)" fill="none" stroke="#92C83E" stroke-width="1.0255" stroke-miterlimit="10" d="M477.626,2.271
			C468.008,2.28,458.42,3.133,449,6C458.42,3.133,468.008,2.28,477.626,2.271c-43.194-108.524-147.27-185.03-268.819-185.03
			c-160.258,0-290.173,132.975-290.173,297.009c0,84.88,34.792,161.438,90.569,215.565C11.51,314.478,11.964,299.326,3,287
			c8.964,12.326,8.51,27.478,6.203,42.815c52.013,50.475,122.272,81.444,199.604,81.444c160.257,0,290.173-132.977,290.173-297.01
			C498.98,74.63,491.382,36.832,477.626,2.271z"/>
		<path clip-path="url(#SVGID_2_)" fill="none" stroke="#F15827" stroke-width="1.0255" stroke-miterlimit="10" d="M468.273,2.588
			C461.801,3.048,455.362,4.063,449,6C455.362,4.063,461.801,3.048,468.273,2.588c-49.367-91.786-144.762-153.987-254.359-153.987
			C53.656-151.399-76.26-18.423-76.26,145.61c0,80.252,31.108,153.057,81.64,206.506C8.826,329.95,16.343,305.347,3,287
			c13.343,18.347,5.826,42.95,2.38,65.116c52.754,55.8,126.68,90.503,208.534,90.503c160.258,0,290.174-132.975,290.174-297.009
			C504.088,93.757,491.093,45.015,468.273,2.588z"/>
		<path clip-path="url(#SVGID_2_)" fill="none" stroke="#003663" stroke-width="1.0255" stroke-miterlimit="10" d="M454.552,4.546
			C452.696,4.962,450.845,5.438,449,6C450.845,5.438,452.696,4.962,454.552,4.546c-44.692-105.1-147.039-178.594-266.172-178.594
			c-160.258,0-290.173,132.975-290.173,297.009c0,92.928,41.706,175.875,106.992,230.337C8.55,330.83,16.581,305.674,3,287
			c13.581,18.674,5.55,43.83,2.199,66.299c49.955,41.672,113.712,66.672,183.181,66.672c160.259,0,290.175-132.977,290.175-297.009
			C478.555,80.867,469.98,40.828,454.552,4.546z"/>
	</g>
	
		<line fill="none" stroke="#C7C8CA" stroke-width="0.81" stroke-linecap="round" stroke-linejoin="round" stroke-dasharray="0,2.4461" x1="94.396" y1="225.804" x2="274.183" y2="225.804"/>
	<path fill="none" stroke="#C7C8CA" stroke-width="0.81" stroke-linecap="round" stroke-linejoin="round" d="M91.95,225.804
		L91.95,225.804 M275.406,225.804L275.406,225.804"/>
	<path fill="#003663" d="M93.689,251.903h3.96v-0.582h-3.004l1.515-1.345c0.996-0.867,1.433-1.377,1.433-2.204v-0.016
		c0-0.923-0.736-1.603-1.757-1.603c-0.996,0-1.531,0.445-2.041,1.206l0.47,0.34c0.454-0.631,0.875-0.972,1.522-0.972
		c0.616,0,1.142,0.422,1.142,1.086c0,0.567-0.315,1.004-1.183,1.782l-2.057,1.815V251.903L93.689,251.903z M101.37,252
		c1.458,0,2.397-1.343,2.397-2.931v-0.017c0-1.588-0.922-2.915-2.381-2.915s-2.405,1.344-2.405,2.932v0.016
		C98.981,250.673,99.904,252,101.37,252L101.37,252z M101.386,251.418c-1.062,0-1.742-1.11-1.742-2.349v-0.017
		c0-1.247,0.664-2.333,1.726-2.333c1.053,0,1.734,1.11,1.734,2.35v0.016C103.104,250.324,102.448,251.418,101.386,251.418
		L101.386,251.418z M105.986,251.903h0.631v-5.709h-0.469l-1.385,0.477l0.154,0.519l1.069-0.332V251.903L105.986,251.903z
		 M110.247,252c1.053,0,1.895-0.695,1.895-1.708v-0.016c0-1.038-0.882-1.515-1.87-1.596l1.781-1.977v-0.469h-3.62v0.574h2.771
		l-1.79,2.018l0.129,0.38h0.365c0.931,0,1.587,0.389,1.587,1.094v0.016c0,0.665-0.551,1.102-1.239,1.102
		c-0.697,0-1.223-0.308-1.652-0.843l-0.47,0.414C108.595,251.588,109.299,252,110.247,252L110.247,252z M118.921,252
		c1.028,0,1.677-0.396,2.268-0.995l-0.421-0.413c-0.543,0.518-1.053,0.818-1.831,0.818c-1.248,0-2.195-1.029-2.195-2.341v-0.017
		c0-1.304,0.94-2.325,2.195-2.325c0.77,0,1.304,0.324,1.782,0.778l0.438-0.47c-0.567-0.534-1.183-0.898-2.211-0.898
		c-1.668,0-2.866,1.327-2.866,2.932v0.016C116.079,250.713,117.285,252,118.921,252L118.921,252z M125.181,252
		c1.726,0,2.899-1.368,2.899-2.931v-0.017c0-1.563-1.157-2.915-2.883-2.915c-1.726,0-2.899,1.368-2.899,2.932v0.016
		C122.298,250.648,123.456,252,125.181,252L125.181,252z M125.198,251.41c-1.296,0-2.236-1.053-2.236-2.341v-0.017
		c0-1.288,0.924-2.325,2.22-2.325c1.296,0,2.236,1.053,2.236,2.342v0.016C127.417,250.373,126.494,251.41,125.198,251.41
		L125.198,251.41z M129.847,251.903h0.623v-4.584l2.066,3.029h0.032l2.066-3.037v4.592h0.639v-5.669h-0.647l-2.066,3.094
		l-2.066-3.094h-0.647V251.903L129.847,251.903z M137.326,251.903h0.623v-4.584l2.066,3.029h0.033l2.066-3.037v4.592h0.639v-5.669
		h-0.647l-2.066,3.094l-2.066-3.094h-0.647V251.903L137.326,251.903z M147.095,251.992c1.418,0,2.364-0.857,2.364-2.51v-3.248
		h-0.638v3.297c0,1.239-0.665,1.871-1.71,1.871c-1.078,0-1.734-0.688-1.734-1.912v-3.256h-0.639v3.297
		C144.738,251.135,145.693,251.992,147.095,251.992L147.095,251.992z M151.442,251.903h0.622v-4.648l3.662,4.648h0.51v-5.669h-0.623
		v4.543l-3.573-4.543h-0.598V251.903L151.442,251.903z M158.312,251.903h0.639v-5.669h-0.639V251.903L158.312,251.903z
		 M162.388,251.903h0.647v-5.079h1.903v-0.59h-4.454v0.59h1.904V251.903L162.388,251.903z M168.499,251.903h0.647v-2.251
		l2.357-3.418h-0.745l-1.927,2.835l-1.911-2.835h-0.778l2.357,3.426V251.903L168.499,251.903z M174.874,251.903h0.656l0.672-1.498
		h3.085l0.664,1.498h0.689l-2.584-5.709h-0.599L174.874,251.903L174.874,251.903z M176.453,249.822l1.296-2.884l1.287,2.884H176.453
		L176.453,249.822z M184.409,252c1.028,0,1.676-0.396,2.268-0.995l-0.421-0.413c-0.543,0.518-1.053,0.818-1.831,0.818
		c-1.247,0-2.195-1.029-2.195-2.341v-0.017c0-1.304,0.939-2.325,2.195-2.325c0.769,0,1.304,0.324,1.782,0.778l0.437-0.47
		c-0.567-0.534-1.182-0.898-2.211-0.898c-1.669,0-2.866,1.327-2.866,2.932v0.016C181.567,250.713,182.773,252,184.409,252
		L184.409,252z M188.19,251.903h0.639v-2.551h3.273v2.551h0.639v-5.669h-0.639v2.519h-3.273v-2.519h-0.639V251.903L188.19,251.903z
		 M194.817,251.903h0.639v-5.669h-0.639V251.903L194.817,251.903z M197.521,251.903h4.138v-0.582h-3.499v-1.986h3.094v-0.582h-3.094
		v-1.937h3.459v-0.582h-4.098V251.903L197.521,251.903z M205.382,251.944h0.566l2.438-5.71h-0.688l-2.025,4.884l-2.016-4.884h-0.713
		L205.382,251.944L205.382,251.944z M209.861,251.903h4.138v-0.582H210.5v-1.986h3.094v-0.582H210.5v-1.937h3.459v-0.582h-4.098
		V251.903L209.861,251.903z M215.603,251.903h0.623v-4.584l2.066,3.029h0.032l2.066-3.037v4.592h0.639v-5.669h-0.647l-2.066,3.094
		l-2.066-3.094h-0.647V251.903L215.603,251.903z M223.082,251.903h4.138v-0.582h-3.499v-1.986h3.094v-0.582h-3.094v-1.937h3.459
		v-0.582h-4.098V251.903L223.082,251.903z M228.824,251.903h0.623v-4.648l3.662,4.648h0.509v-5.669h-0.622v4.543l-3.573-4.543
		h-0.599V251.903L228.824,251.903z M237.037,251.903h0.647v-5.079h1.903v-0.59h-4.454v0.59h1.904V251.903L237.037,251.903z
		 M245.565,251.984c1.127,0,1.936-0.631,1.936-1.603v-0.016c0-0.867-0.583-1.329-1.847-1.604c-1.247-0.268-1.539-0.567-1.539-1.102
		v-0.016c0-0.511,0.47-0.916,1.207-0.916c0.584,0,1.11,0.187,1.637,0.616l0.372-0.494c-0.575-0.461-1.166-0.696-1.993-0.696
		c-1.077,0-1.862,0.655-1.862,1.546v0.017c0,0.931,0.598,1.353,1.903,1.636c1.191,0.251,1.475,0.551,1.475,1.078v0.016
		c0,0.559-0.503,0.964-1.264,0.964c-0.786,0-1.354-0.267-1.944-0.802l-0.397,0.47C243.929,251.685,244.666,251.984,245.565,251.984
		L245.565,251.984z M251.719,252c1.029,0,1.677-0.396,2.268-0.995l-0.421-0.413c-0.543,0.518-1.053,0.818-1.831,0.818
		c-1.247,0-2.195-1.029-2.195-2.341v-0.017c0-1.304,0.94-2.325,2.195-2.325c0.77,0,1.304,0.324,1.782,0.778l0.438-0.47
		c-0.567-0.534-1.183-0.898-2.212-0.898c-1.668,0-2.866,1.327-2.866,2.932v0.016C248.877,250.713,250.083,252,251.719,252
		L251.719,252z M257.979,252c1.726,0,2.9-1.368,2.9-2.931v-0.017c0-1.563-1.158-2.915-2.883-2.915c-1.726,0-2.9,1.368-2.9,2.932
		v0.016C255.096,250.648,256.254,252,257.979,252L257.979,252z M257.996,251.41c-1.297,0-2.237-1.053-2.237-2.341v-0.017
		c0-1.288,0.924-2.325,2.22-2.325c1.297,0,2.236,1.053,2.236,2.342v0.016C260.215,250.373,259.292,251.41,257.996,251.41
		L257.996,251.41z M262.645,251.903h0.639V249.7h1.621l1.644,2.203h0.785l-1.741-2.316c0.892-0.162,1.539-0.712,1.539-1.652v-0.017
		c0-0.445-0.162-0.842-0.437-1.118c-0.356-0.356-0.915-0.566-1.612-0.566h-2.438V251.903L262.645,251.903z M263.284,249.126v-2.302
		h1.75c0.916,0,1.451,0.422,1.451,1.119v0.016c0,0.729-0.608,1.167-1.459,1.167H263.284L263.284,249.126z M268.913,251.903h4.138
		v-0.582h-3.499v-1.986h3.094v-0.582h-3.094v-1.937h3.459v-0.582h-4.098V251.903L268.913,251.903z M277.129,252
		c1.028,0,1.676-0.396,2.268-0.995l-0.422-0.413c-0.542,0.518-1.053,0.818-1.83,0.818c-1.248,0-2.195-1.029-2.195-2.341v-0.017
		c0-1.304,0.939-2.325,2.195-2.325c0.769,0,1.304,0.324,1.782,0.778l0.437-0.47c-0.567-0.534-1.182-0.898-2.211-0.898
		c-1.669,0-2.866,1.327-2.866,2.932v0.016C274.287,250.713,275.492,252,277.129,252L277.129,252z M280.454,251.903h0.656
		l0.672-1.498h3.086l0.664,1.498h0.688l-2.583-5.709h-0.6L280.454,251.903L280.454,251.903z M282.033,249.822l1.296-2.884
		l1.287,2.884H282.033L282.033,249.822z M287.695,251.903h0.639V249.7h1.621l1.644,2.203h0.785l-1.741-2.316
		c0.892-0.162,1.539-0.712,1.539-1.652v-0.017c0-0.445-0.162-0.842-0.437-1.118c-0.356-0.356-0.915-0.566-1.612-0.566h-2.438
		V251.903L287.695,251.903z M288.334,249.126v-2.302h1.75c0.916,0,1.451,0.422,1.451,1.119v0.016c0,0.729-0.608,1.167-1.459,1.167
		H288.334L288.334,249.126z M293.963,251.903h1.968c1.782,0,3.012-1.238,3.012-2.834v-0.017c0-1.596-1.23-2.818-3.012-2.818h-1.968
		V251.903L293.963,251.903z M295.931,246.824c1.434,0,2.349,0.989,2.349,2.245v0.016c0,1.256-0.915,2.228-2.349,2.228h-1.329v-4.489
		H295.931L295.931,246.824z"/>
	<path fill="#003663" d="M144.731,239.303h0.704v-2.187c0.162,0.041,0.357,0.049,0.567,0.049c0.689,0,1.297-0.202,1.668-0.599
		c0.275-0.283,0.421-0.672,0.421-1.167c0-0.486-0.178-0.883-0.477-1.142c-0.324-0.291-0.834-0.453-1.532-0.453
		c-0.567,0-1.012,0.049-1.352,0.105V239.303L144.731,239.303z M145.435,234.419c0.122-0.033,0.357-0.057,0.665-0.057
		c0.778,0,1.289,0.349,1.289,1.07c0,0.753-0.519,1.167-1.37,1.167c-0.235,0-0.429-0.016-0.583-0.057V234.419L145.435,234.419z
		 M151.667,237.586l0.584,1.717h0.753l-1.863-5.458h-0.85l-1.855,5.458h0.729l0.567-1.717H151.667L151.667,237.586z
		 M149.878,237.036l0.534-1.579c0.106-0.333,0.195-0.665,0.276-0.99h0.016c0.081,0.316,0.162,0.641,0.283,0.997l0.535,1.572H149.878
		L149.878,237.036z M154.037,239.303h0.703v-2.365h0.665c0.64,0.024,0.932,0.308,1.094,1.061c0.154,0.68,0.275,1.15,0.364,1.304
		h0.729c-0.114-0.21-0.243-0.737-0.421-1.498c-0.13-0.567-0.381-0.956-0.802-1.102v-0.024c0.575-0.194,1.028-0.672,1.028-1.393
		c0-0.421-0.154-0.794-0.429-1.037c-0.339-0.307-0.826-0.445-1.579-0.445c-0.487,0-0.996,0.041-1.352,0.113V239.303L154.037,239.303
		z M154.74,234.411c0.114-0.033,0.357-0.065,0.697-0.065c0.746,0.008,1.256,0.316,1.256,1.021c0,0.624-0.478,1.037-1.231,1.037
		h-0.722V234.411L154.74,234.411z M159.779,239.303h0.711v-4.86h1.669v-0.598h-4.041v0.598h1.661V239.303L159.779,239.303z
		 M163.747,239.303v-2.332c0-0.908-0.016-1.564-0.056-2.252l0.024-0.009c0.276,0.592,0.64,1.215,1.021,1.823l1.734,2.77h0.712
		v-5.458h-0.663v2.283c0,0.851,0.016,1.516,0.081,2.245l-0.017,0.008c-0.259-0.559-0.575-1.134-0.98-1.774l-1.75-2.762h-0.769v5.458
		H163.747L163.747,239.303z M171.525,236.161h-2.122v-1.726h2.243v-0.59h-2.947v5.458h3.069v-0.59h-2.365v-1.969h2.122V236.161
		L171.525,236.161z M172.896,239.303h0.703v-2.365h0.665c0.64,0.024,0.932,0.308,1.094,1.061c0.154,0.68,0.275,1.15,0.364,1.304
		h0.728c-0.113-0.21-0.242-0.737-0.42-1.498c-0.13-0.567-0.381-0.956-0.802-1.102v-0.024c0.575-0.194,1.028-0.672,1.028-1.393
		c0-0.421-0.154-0.794-0.429-1.037c-0.339-0.307-0.826-0.445-1.579-0.445c-0.487,0-0.997,0.041-1.352,0.113V239.303L172.896,239.303
		z M173.599,234.411c0.114-0.033,0.357-0.065,0.697-0.065c0.746,0.008,1.256,0.316,1.256,1.021c0,0.624-0.478,1.037-1.231,1.037
		h-0.722V234.411L173.599,234.411z M177.303,239.036c0.291,0.194,0.865,0.348,1.392,0.348c1.289,0,1.912-0.728,1.912-1.57
		c0-0.803-0.47-1.248-1.393-1.605c-0.754-0.291-1.086-0.542-1.086-1.053c0-0.373,0.284-0.818,1.029-0.818
		c0.495,0,0.859,0.162,1.037,0.259l0.194-0.574c-0.243-0.138-0.647-0.267-1.206-0.267c-1.062,0-1.766,0.63-1.766,1.481
		c0,0.77,0.55,1.232,1.441,1.548c0.738,0.283,1.03,0.575,1.03,1.085c0,0.551-0.422,0.932-1.143,0.932
		c-0.486,0-0.948-0.162-1.263-0.357L177.303,239.036L177.303,239.036z M181.778,233.845v5.458h0.704v-2.559h2.641v2.559h0.712
		v-5.458h-0.712v2.284h-2.641v-2.284H181.778L181.778,233.845z M187.347,233.845v5.458h0.704v-5.458H187.347L187.347,233.845z
		 M189.556,239.303h0.704v-2.187c0.162,0.041,0.357,0.049,0.567,0.049c0.689,0,1.297-0.202,1.669-0.599
		c0.275-0.283,0.421-0.672,0.421-1.167c0-0.486-0.178-0.883-0.477-1.142c-0.324-0.291-0.835-0.453-1.532-0.453
		c-0.567,0-1.012,0.049-1.352,0.105V239.303L189.556,239.303z M190.26,234.419c0.122-0.033,0.357-0.057,0.665-0.057
		c0.778,0,1.288,0.349,1.288,1.07c0,0.753-0.519,1.167-1.369,1.167c-0.235,0-0.43-0.016-0.584-0.057V234.419L190.26,234.419z"/>
	<path fill="#CA2033" d="M141.337,237.733l0.113-3.888h-0.777l0.113,3.888H141.337L141.337,237.733z M141.062,239.392
		c0.291,0,0.477-0.218,0.477-0.501c0-0.292-0.186-0.502-0.477-0.502c-0.275,0-0.478,0.21-0.478,0.502
		C140.584,239.174,140.779,239.392,141.062,239.392L141.062,239.392z"/>
	<path fill="#003663" d="M94.953,239.303h0.712v-4.86h1.668v-0.598h-4.041v0.598h1.661V239.303L94.953,239.303z M98.258,233.845
		v5.458h0.704v-2.559h2.642v2.559h0.711v-5.458h-0.711v2.284h-2.642v-2.284H98.258L98.258,233.845z M106.655,236.161h-2.122v-1.726
		h2.244v-0.59h-2.947v5.458h3.069v-0.59h-2.365v-1.969h2.122V236.161L106.655,236.161z M113.604,238.567
		c-0.284,0.138-0.721,0.227-1.15,0.227c-1.328,0-2.098-0.859-2.098-2.196c0-1.434,0.851-2.252,2.13-2.252
		c0.453,0,0.834,0.097,1.102,0.227l0.17-0.574c-0.187-0.098-0.616-0.243-1.296-0.243c-1.693,0-2.85,1.157-2.85,2.867
		c0,1.79,1.157,2.761,2.696,2.761c0.664,0,1.183-0.129,1.441-0.259L113.604,238.567L113.604,238.567z M116.874,233.756
		c-1.458,0-2.535,1.133-2.535,2.867c0,1.652,1.011,2.769,2.454,2.769c1.394,0,2.535-0.995,2.535-2.875
		C119.328,234.897,118.365,233.756,116.874,233.756L116.874,233.756z M116.841,234.33c1.175,0,1.742,1.134,1.742,2.22
		c0,1.239-0.632,2.268-1.75,2.268c-1.11,0-1.742-1.045-1.742-2.212C115.091,235.407,115.675,234.33,116.841,234.33L116.841,234.33z
		 M125.246,239.303h0.688l-0.34-5.458h-0.899l-0.972,2.639c-0.243,0.69-0.438,1.289-0.575,1.84h-0.024
		c-0.138-0.567-0.324-1.167-0.551-1.839l-0.931-2.64h-0.899l-0.38,5.458h0.672l0.146-2.341c0.049-0.818,0.089-1.733,0.105-2.414
		h0.016c0.154,0.648,0.373,1.353,0.632,2.123l0.882,2.6h0.535l0.964-2.648c0.275-0.754,0.502-1.435,0.688-2.075h0.024
		c-0.008,0.681,0.041,1.597,0.081,2.358L125.246,239.303L125.246,239.303z M132.046,239.303h0.688l-0.34-5.458h-0.899l-0.972,2.639
		c-0.243,0.69-0.438,1.289-0.575,1.84h-0.024c-0.138-0.567-0.324-1.167-0.55-1.839l-0.932-2.64h-0.899l-0.38,5.458h0.672
		l0.146-2.341c0.048-0.818,0.089-1.733,0.105-2.414h0.017c0.154,0.648,0.372,1.353,0.631,2.123l0.883,2.6h0.535l0.964-2.648
		c0.275-0.754,0.502-1.435,0.688-2.075h0.024c-0.008,0.681,0.041,1.597,0.081,2.358L132.046,239.303L132.046,239.303z
		 M134.12,233.845v5.458h0.704v-5.458H134.12L134.12,233.845z M137.406,239.303h0.712v-4.86h1.669v-0.598h-4.041v0.598h1.66V239.303
		L137.406,239.303z"/>
	<path fill="#003663" d="M100.295,198.537c-4.536,0-7.888,3.528-7.888,8.921c0,5.141,3.15,8.618,7.636,8.618
		c4.334,0,7.888-3.099,7.888-8.946C107.931,202.09,104.932,198.537,100.295,198.537L100.295,198.537z M100.194,200.326
		c3.654,0,5.418,3.528,5.418,6.905c0,3.856-1.966,7.056-5.443,7.056c-3.453,0-5.418-3.251-5.418-6.879
		C94.751,203.678,96.565,200.326,100.194,200.326L100.194,200.326z M120.815,203.602h-2.217v7.485c0,0.403-0.076,0.806-0.202,1.134
		c-0.403,0.983-1.437,2.016-2.923,2.016c-2.016,0-2.722-1.563-2.722-3.881v-6.754h-2.217v7.132c0,4.284,2.293,5.342,4.208,5.342
		c2.167,0,3.453-1.285,4.032-2.268h0.05l0.126,1.991h1.966c-0.076-0.957-0.101-2.066-0.101-3.326V203.602L120.815,203.602z
		 M124.136,215.799h2.192v-6.501c0-0.378,0.05-0.731,0.101-1.034c0.302-1.663,1.411-2.847,2.974-2.847
		c0.302,0,0.529,0.025,0.756,0.075v-2.091c-0.202-0.051-0.378-0.076-0.63-0.076c-1.487,0-2.823,1.033-3.377,2.671h-0.101
		l-0.075-2.394h-1.94c0.076,1.134,0.101,2.369,0.101,3.806V215.799L124.136,215.799z M141.02,215.799h2.218v-15.12h5.191v-1.865
		h-12.575v1.865h5.166V215.799L141.02,215.799z M153.441,203.325c-3.377,0-6.048,2.394-6.048,6.477c0,3.855,2.545,6.274,5.846,6.274
		c2.949,0,6.073-1.965,6.073-6.476C159.312,205.87,156.944,203.325,153.441,203.325L153.441,203.325z M153.39,204.988
		c2.621,0,3.654,2.621,3.654,4.688c0,2.746-1.587,4.737-3.704,4.737c-2.167,0-3.704-2.016-3.704-4.687
		C149.636,207.408,150.77,204.988,153.39,204.988L153.39,204.988z M161.86,215.799h2.167v-7.358c0-0.378,0.051-0.756,0.177-1.084
		c0.352-1.109,1.36-2.217,2.746-2.217c1.689,0,2.546,1.411,2.546,3.351v7.308h2.167v-7.535c0-0.403,0.075-0.806,0.176-1.108
		c0.378-1.084,1.361-2.016,2.621-2.016c1.789,0,2.646,1.411,2.646,3.754v6.905h2.167v-7.182c0-4.233-2.394-5.292-4.007-5.292
		c-1.159,0-1.965,0.303-2.696,0.857c-0.504,0.378-0.983,0.907-1.361,1.588h-0.05c-0.529-1.437-1.789-2.445-3.453-2.445
		c-2.016,0-3.15,1.084-3.83,2.243H163.8l-0.1-1.966h-1.941c0.076,1.008,0.101,2.042,0.101,3.302V215.799L161.86,215.799z
		 M187.806,203.325c-3.377,0-6.048,2.394-6.048,6.477c0,3.855,2.545,6.274,5.846,6.274c2.949,0,6.073-1.965,6.073-6.476
		C193.677,205.87,191.309,203.325,187.806,203.325L187.806,203.325z M187.755,204.988c2.621,0,3.654,2.621,3.654,4.688
		c0,2.746-1.587,4.737-3.704,4.737c-2.167,0-3.704-2.016-3.704-4.687C184.001,207.408,185.135,204.988,187.755,204.988
		L187.755,204.988z M196.225,215.799h2.192v-6.501c0-0.378,0.051-0.731,0.101-1.034c0.303-1.663,1.412-2.847,2.974-2.847
		c0.302,0,0.529,0.025,0.756,0.075v-2.091c-0.202-0.051-0.378-0.076-0.63-0.076c-1.487,0-2.822,1.033-3.377,2.671h-0.101
		l-0.075-2.394h-1.941c0.076,1.134,0.101,2.369,0.101,3.806V215.799L196.225,215.799z M204.249,215.799h2.192v-6.501
		c0-0.378,0.05-0.731,0.101-1.034c0.302-1.663,1.411-2.847,2.973-2.847c0.303,0,0.53,0.025,0.756,0.075v-2.091
		c-0.201-0.051-0.378-0.076-0.63-0.076c-1.486,0-2.822,1.033-3.376,2.671h-0.101l-0.076-2.394h-1.94
		c0.075,1.134,0.101,2.369,0.101,3.806V215.799L204.249,215.799z M217.257,203.325c-3.377,0-6.048,2.394-6.048,6.477
		c0,3.855,2.545,6.274,5.846,6.274c2.949,0,6.073-1.965,6.073-6.476C223.128,205.87,220.76,203.325,217.257,203.325L217.257,203.325
		z M217.206,204.988c2.621,0,3.654,2.621,3.654,4.688c0,2.746-1.587,4.737-3.704,4.737c-2.167,0-3.704-2.016-3.704-4.687
		C213.452,207.408,214.586,204.988,217.206,204.988L217.206,204.988z M224.025,203.602l3.68,12.197h2.016l1.965-5.796
		c0.429-1.31,0.807-2.57,1.109-4.032h0.05c0.303,1.437,0.656,2.646,1.084,4.007l1.865,5.821h2.016l3.931-12.197h-2.192l-1.739,6.124
		c-0.403,1.436-0.731,2.722-0.933,3.956h-0.075c-0.277-1.234-0.63-2.52-1.084-3.981l-1.89-6.099h-1.865l-1.99,6.225
		c-0.404,1.31-0.807,2.621-1.084,3.855h-0.076c-0.226-1.26-0.554-2.52-0.907-3.88l-1.613-6.2H224.025L224.025,203.602z
		 M243.696,216.076c0.933,0,1.512-0.68,1.512-1.587c0-0.933-0.604-1.588-1.486-1.588s-1.512,0.655-1.512,1.588
		C242.21,215.396,242.814,216.076,243.696,216.076L243.696,216.076z"/>
	<path fill="#003663" d="M100.295,171.537c-4.536,0-7.888,3.528-7.888,8.921c0,5.141,3.15,8.618,7.636,8.618
		c4.334,0,7.888-3.099,7.888-8.946C107.931,175.09,104.932,171.537,100.295,171.537L100.295,171.537z M100.194,173.326
		c3.654,0,5.418,3.528,5.418,6.905c0,3.856-1.966,7.056-5.443,7.056c-3.453,0-5.418-3.251-5.418-6.879
		C94.751,176.678,96.565,173.326,100.194,173.326L100.194,173.326z M120.815,176.602h-2.217v7.485c0,0.403-0.076,0.806-0.202,1.134
		c-0.403,0.983-1.437,2.016-2.923,2.016c-2.016,0-2.722-1.563-2.722-3.881v-6.754h-2.217v7.132c0,4.284,2.293,5.342,4.208,5.342
		c2.167,0,3.453-1.285,4.032-2.268h0.05l0.126,1.991h1.966c-0.076-0.957-0.101-2.066-0.101-3.326V176.602L120.815,176.602z
		 M124.136,188.799h2.192v-6.501c0-0.378,0.05-0.731,0.101-1.034c0.302-1.663,1.411-2.847,2.974-2.847
		c0.302,0,0.529,0.025,0.756,0.075v-2.091c-0.202-0.051-0.378-0.076-0.63-0.076c-1.487,0-2.823,1.033-3.377,2.671h-0.101
		l-0.075-2.394h-1.94c0.076,1.134,0.101,2.369,0.101,3.806V188.799L124.136,188.799z M137.794,188.799h2.192v-6.476l1.613-1.865
		l5.594,8.341h2.595l-6.627-9.777l6.149-7.208h-2.722l-5.191,6.376c-0.428,0.554-0.882,1.159-1.335,1.814h-0.076v-8.19h-2.192
		V188.799L137.794,188.799z M153.637,188.799v-12.197h-2.217v12.197H153.637L153.637,188.799z M152.528,171.789
		c-0.806,0-1.386,0.605-1.386,1.386c0,0.756,0.555,1.361,1.336,1.361c0.882,0,1.436-0.605,1.411-1.361
		C153.889,172.394,153.36,171.789,152.528,171.789L152.528,171.789z M165.368,170.907v7.283h-0.051
		c-0.554-0.983-1.814-1.865-3.679-1.865c-2.973,0-5.493,2.495-5.468,6.552c0,3.705,2.268,6.199,5.216,6.199
		c1.991,0,3.478-1.033,4.158-2.394h0.051l0.1,2.117h1.991c-0.075-0.831-0.101-2.066-0.101-3.15v-14.742H165.368L165.368,170.907z
		 M165.368,183.684c0,0.352-0.025,0.655-0.101,0.957c-0.403,1.663-1.764,2.646-3.251,2.646c-2.394,0-3.603-2.041-3.603-4.511
		c0-2.696,1.36-4.712,3.654-4.712c1.663,0,2.872,1.159,3.2,2.57c0.076,0.278,0.101,0.656,0.101,0.933V183.684L165.368,183.684z
		 M170.002,188.22c0.857,0.504,2.091,0.831,3.427,0.831c2.898,0,4.561-1.512,4.561-3.654c0-1.814-1.083-2.873-3.2-3.679
		c-1.588-0.605-2.319-1.058-2.319-2.066c0-0.908,0.731-1.664,2.042-1.664c1.134,0,2.016,0.404,2.494,0.706l0.555-1.613
		c-0.681-0.403-1.764-0.756-2.999-0.756c-2.621,0-4.208,1.613-4.208,3.579c0,1.461,1.033,2.671,3.225,3.452
		c1.638,0.605,2.268,1.184,2.268,2.243c0,1.008-0.756,1.814-2.369,1.814c-1.108,0-2.268-0.453-2.923-0.882L170.002,188.22
		L170.002,188.22z M181.659,189.076c0.933,0,1.512-0.68,1.512-1.587c0-0.933-0.605-1.588-1.487-1.588s-1.512,0.655-1.512,1.588
		C180.172,188.396,180.777,189.076,181.659,189.076L181.659,189.076z"/>
</g>
</svg>
