<?xml version="1.0" encoding="utf-8"?>
<!-- Generator: Adobe Illustrator 16.0.0, SVG Export Plug-In . SVG Version: 6.00 Build 0)  -->
<!DOCTYPE svg PUBLIC "-//W3C//DTD SVG 1.1//EN" "http://www.w3.org/Graphics/SVG/1.1/DTD/svg11.dtd">
<svg version="1.1" id="Layer_1" xmlns="http://www.w3.org/2000/svg" xmlns:xlink="http://www.w3.org/1999/xlink" x="0px" y="0px"
	 width="612px" height="558px" viewBox="0 0 612 558" enable-background="new 0 0 612 558" xml:space="preserve">
<g>
	<g>
		<defs>
			<polygon id="SVGID_1_" points="559.355,18 559.355,514.045 51,514.045 51,18 559.355,18 			"/>
		</defs>
		<clipPath id="SVGID_2_">
			<use xlink:href="#SVGID_1_"  overflow="visible"/>
		</clipPath>
		<path clip-path="url(#SVGID_2_)" fill="none" stroke="#F9B543" stroke-width="1.0255" stroke-miterlimit="10" d="M200.39,442.166
			c160.258,0,290.174-132.977,290.174-297.009c0-164.034-129.916-297.009-290.174-297.009
			c-160.258,0-290.173,132.976-290.173,297.009C-89.783,309.189,40.132,442.166,200.39,442.166L200.39,442.166z"/>
		<path clip-path="url(#SVGID_2_)" fill="none" stroke="#178DA3" stroke-width="1.0255" stroke-miterlimit="10" d="M212.212,439.818
			c160.259,0,290.173-132.975,290.173-297.008c0-164.034-129.914-297.009-290.173-297.009S-77.962-21.224-77.962,142.81
			C-77.962,306.844,51.953,439.818,212.212,439.818L212.212,439.818z"/>
		<path clip-path="url(#SVGID_2_)" fill="none" stroke="#92C83E" stroke-width="1.0255" stroke-miterlimit="10" d="M208.807,421.26
			c160.257,0,290.173-132.977,290.173-297.01c0-164.034-129.916-297.009-290.173-297.009
			c-160.258,0-290.173,132.975-290.173,297.009C-81.366,288.283,48.549,421.26,208.807,421.26L208.807,421.26z"/>
		<path clip-path="url(#SVGID_2_)" fill="none" stroke="#F15827" stroke-width="1.0255" stroke-miterlimit="10" d="M213.914,452.619
			c160.258,0,290.174-132.975,290.174-297.009c0-164.033-129.916-297.009-290.174-297.009C53.656-141.399-76.26-8.423-76.26,155.61
			C-76.26,319.645,53.656,452.619,213.914,452.619L213.914,452.619z"/>
		<path clip-path="url(#SVGID_2_)" fill="none" stroke="#003663" stroke-width="1.0255" stroke-miterlimit="10" d="M188.38,429.971
			c160.259,0,290.175-132.977,290.175-297.009c0-164.034-129.916-297.009-290.175-297.009
			c-160.258,0-290.173,132.975-290.173,297.009C-101.793,296.994,28.122,429.971,188.38,429.971L188.38,429.971z"/>
	</g>
	<text transform="matrix(1 0 0 1 142.2007 249.2959)" fill="#003663" font-family="'MyriadPro-Regular'" font-size="8.1"> </text>
	<text transform="matrix(1 0 0 1 109.9663 261.9082)" fill="#003663" font-family="'MyriadPro-Regular'" font-size="8.1"> </text>
	
		<path fill="none" stroke="#C7C8CA" stroke-width="0.81" stroke-linecap="round" stroke-linejoin="round" stroke-dasharray="0,2.4461" d="
		M274.183,235.804"/>
	
		<path fill="none" stroke="#C7C8CA" stroke-width="0.81" stroke-linecap="round" stroke-linejoin="round" stroke-dasharray="0,2.4461" d="
		M94.396,235.804"/>
	<path fill="none" stroke="#C7C8CA" stroke-width="0.81" stroke-linecap="round" stroke-linejoin="round" d="M91.95,235.804
		L91.95,235.804 M275.406,235.804L275.406,235.804"/>
	<path fill="#003663" d="M131.367,530.375v-0.043c0-3.193,2.441-5.822,5.864-5.822c1.69,0,2.88,0.459,3.819,1.252
		c0.208,0.168,0.5,0.543,0.5,1.086c0,0.793-0.647,1.418-1.44,1.418c-0.417,0-0.73-0.166-0.918-0.313
		c-0.563-0.438-1.148-0.709-1.982-0.709c-1.586,0-2.713,1.398-2.713,3.047v0.041c0,1.711,1.106,3.09,2.839,3.09
		c0.834,0,1.481-0.293,2.086-0.773c0.167-0.125,0.48-0.293,0.855-0.293c0.751,0,1.335,0.607,1.335,1.357
		c0,0.418-0.188,0.752-0.459,1.002c-0.939,0.855-2.128,1.439-3.965,1.439C133.829,536.154,131.367,533.566,131.367,530.375"/>
	<path fill="#003663" d="M151.296,530.375v-0.043c0-1.648-1.19-3.088-2.943-3.088c-1.815,0-2.9,1.398-2.9,3.047v0.041
		c0,1.648,1.189,3.09,2.942,3.09C150.211,533.422,151.296,532.023,151.296,530.375 M142.323,530.375v-0.043
		c0-3.213,2.587-5.822,6.072-5.822c3.464,0,6.031,2.566,6.031,5.781v0.041c0,3.215-2.587,5.822-6.073,5.822
		C144.889,536.154,142.323,533.588,142.323,530.375"/>
	<path fill="#003663" d="M155.907,526.18c0-0.877,0.71-1.586,1.586-1.586c0.877,0,1.587,0.709,1.587,1.586v0.125
		c0.73-0.939,1.69-1.795,3.297-1.795c1.46,0,2.566,0.646,3.151,1.773c0.98-1.146,2.149-1.773,3.673-1.773
		c2.358,0,3.776,1.42,3.776,4.111v5.822c0,0.877-0.709,1.586-1.585,1.586c-0.877,0-1.586-0.709-1.586-1.586v-4.777
		c0-1.504-0.668-2.275-1.858-2.275c-1.189,0-1.92,0.771-1.92,2.275v4.777c0,0.877-0.709,1.586-1.586,1.586
		c-0.876,0-1.585-0.709-1.585-1.586v-4.777c0-1.504-0.668-2.275-1.858-2.275c-1.189,0-1.919,0.771-1.919,2.275v4.777
		c0,0.877-0.71,1.586-1.587,1.586c-0.876,0-1.586-0.709-1.586-1.586V526.18z"/>
	<path fill="#003663" d="M174.814,526.18c0-0.877,0.709-1.586,1.586-1.586c0.876,0,1.586,0.709,1.586,1.586v0.125
		c0.73-0.939,1.69-1.795,3.297-1.795c1.461,0,2.567,0.646,3.151,1.773c0.981-1.146,2.15-1.773,3.673-1.773
		c2.359,0,3.777,1.42,3.777,4.111v5.822c0,0.877-0.709,1.586-1.585,1.586c-0.877,0-1.587-0.709-1.587-1.586v-4.777
		c0-1.504-0.667-2.275-1.857-2.275c-1.189,0-1.92,0.771-1.92,2.275v4.777c0,0.877-0.709,1.586-1.586,1.586
		c-0.876,0-1.586-0.709-1.586-1.586v-4.777c0-1.504-0.667-2.275-1.857-2.275s-1.92,0.771-1.92,2.275v4.777
		c0,0.877-0.71,1.586-1.586,1.586c-0.877,0-1.586-0.709-1.586-1.586V526.18z"/>
	<path fill="#003663" d="M193.888,526.18c0-0.877,0.709-1.586,1.586-1.586c0.876,0,1.586,0.709,1.586,1.586v8.264
		c0,0.877-0.71,1.586-1.586,1.586c-0.877,0-1.586-0.709-1.586-1.586V526.18z M193.7,522.049c0-0.92,0.772-1.482,1.774-1.482
		c1.001,0,1.774,0.563,1.774,1.482v0.041c0,0.918-0.773,1.502-1.774,1.502c-1.002,0-1.774-0.584-1.774-1.502V522.049z"/>
	<path fill="#003663" d="M199.793,532.732v-5.301h-0.104c-0.752,0-1.357-0.605-1.357-1.357c0-0.75,0.605-1.355,1.357-1.355h0.104
		v-1.398c0-0.877,0.71-1.586,1.586-1.586c0.877,0,1.586,0.709,1.586,1.586v1.398h1.398c0.752,0,1.357,0.605,1.357,1.355
		c0,0.752-0.605,1.357-1.357,1.357h-1.398v4.779c0,0.73,0.313,1.086,1.022,1.086c0.105,0,0.314-0.021,0.376-0.021
		c0.71,0,1.315,0.584,1.315,1.314c0,0.563-0.376,1.021-0.814,1.189c-0.585,0.229-1.126,0.313-1.815,0.313
		C201.108,536.092,199.793,535.318,199.793,532.732"/>
	<path fill="#C4161C" d="M209.893,532.439c1.044,0,1.816,0.773,1.816,1.775v0.041c0,1.002-0.772,1.773-1.816,1.773
		c-1.043,0-1.815-0.771-1.815-1.773v-0.041C208.078,533.213,208.85,532.439,209.893,532.439 M208.036,522.299
		c-0.063-0.605,0.271-1.064,0.835-1.064h2.045c0.564,0,0.897,0.459,0.835,1.064l-0.898,7.846c-0.062,0.564-0.438,0.918-0.96,0.918
		c-0.521,0-0.897-0.354-0.96-0.918L208.036,522.299z"/>
	<path fill="#003663" d="M136.213,541.383v-0.016c0-1.094-0.798-1.988-1.9-1.988c-1.101,0-1.886,0.881-1.886,1.975v0.014
		c0,1.096,0.798,1.99,1.899,1.99C135.428,543.357,136.213,542.477,136.213,541.383 M131.863,541.383v-0.016
		c0-1.326,0.999-2.49,2.464-2.49c1.467,0,2.451,1.148,2.451,2.477v0.014c0,1.328-0.998,2.492-2.464,2.492
		C132.847,543.859,131.863,542.711,131.863,541.383"/>
	<path fill="#003663" d="M140.714,543.543c0,0.145-0.11,0.268-0.262,0.268c-0.144,0-0.261-0.117-0.261-0.268v-0.387
		c-0.241,0.387-0.605,0.695-1.218,0.695c-0.861,0-1.363-0.578-1.363-1.424v-1.975c0-0.152,0.11-0.27,0.262-0.27
		c0.144,0,0.268,0.117,0.268,0.27v1.844c0,0.662,0.358,1.074,0.984,1.074c0.605,0,1.066-0.447,1.066-1.115v-1.803
		c0-0.152,0.11-0.27,0.261-0.27c0.145,0,0.262,0.117,0.262,0.27V543.543z"/>
	<path fill="#003663" d="M141.732,540.453c0-0.145,0.117-0.27,0.262-0.27c0.151,0,0.268,0.117,0.268,0.27v0.668
		c0.262-0.594,0.778-0.951,1.226-0.951c0.158,0,0.261,0.117,0.261,0.27c0,0.145-0.096,0.246-0.234,0.268
		c-0.688,0.084-1.253,0.6-1.253,1.625v1.211c0,0.145-0.11,0.268-0.261,0.268c-0.151,0-0.269-0.117-0.269-0.268V540.453z"/>
	<path fill="#003663" d="M146.604,539.199c0-0.15,0.124-0.275,0.269-0.275c0.151,0,0.275,0.125,0.275,0.275v2.637l2.746-2.814
		c0.062-0.055,0.124-0.098,0.214-0.098c0.144,0,0.261,0.131,0.261,0.27c0,0.076-0.034,0.139-0.089,0.193l-1.707,1.693l1.831,2.258
		c0.048,0.061,0.075,0.115,0.075,0.199c0,0.145-0.123,0.275-0.275,0.275c-0.103,0-0.172-0.057-0.22-0.125l-1.797-2.236l-1.039,1.039
		v1.047c0,0.15-0.125,0.275-0.275,0.275c-0.145,0-0.269-0.125-0.269-0.275V539.199z"/>
	<path fill="#003663" d="M151.305,540.453c0-0.145,0.117-0.27,0.261-0.27c0.152,0,0.269,0.117,0.269,0.27v3.09
		c0,0.15-0.111,0.268-0.262,0.268s-0.268-0.117-0.268-0.268V540.453z M151.257,539.104c0-0.172,0.137-0.283,0.309-0.283
		c0.179,0,0.317,0.111,0.317,0.283v0.09c0,0.164-0.138,0.281-0.317,0.281c-0.172,0-0.309-0.117-0.309-0.281V539.104z"/>
	<path fill="#003663" d="M153.369,541.986v0.016c0,0.84,0.585,1.377,1.253,1.377c0.661,0,1.287-0.559,1.287-1.377v-0.016
		c0-0.818-0.626-1.369-1.287-1.369C153.933,540.617,153.369,541.127,153.369,541.986 M156.418,543.543
		c0,0.15-0.117,0.268-0.261,0.268c-0.152,0-0.269-0.117-0.269-0.268v-0.482c-0.289,0.428-0.709,0.791-1.362,0.791
		c-0.854,0-1.701-0.674-1.701-1.844v-0.014c0-1.162,0.847-1.852,1.701-1.852c0.66,0,1.087,0.359,1.362,0.758v-1.914
		c0-0.15,0.11-0.268,0.262-0.268c0.151,0,0.268,0.117,0.268,0.268V543.543z"/>
	<path fill="#003663" d="M157.237,543.398c-0.048-0.035-0.097-0.104-0.097-0.193c0-0.123,0.104-0.227,0.234-0.227
		c0.048,0,0.097,0.014,0.131,0.041c0.365,0.248,0.744,0.379,1.129,0.379c0.427,0,0.737-0.221,0.737-0.564v-0.014
		c0-0.357-0.42-0.496-0.889-0.627c-0.557-0.158-1.176-0.35-1.176-1.004v-0.014c0-0.613,0.509-1.02,1.211-1.02
		c0.378,0,0.791,0.117,1.135,0.305c0.069,0.039,0.131,0.115,0.131,0.219c0,0.125-0.103,0.227-0.234,0.227
		c-0.048,0-0.089-0.014-0.117-0.027c-0.303-0.172-0.626-0.275-0.929-0.275c-0.42,0-0.688,0.221-0.688,0.518v0.014
		c0,0.336,0.44,0.467,0.915,0.611c0.551,0.166,1.143,0.379,1.143,1.02v0.014c0,0.674-0.557,1.066-1.267,1.066
		C158.138,543.846,157.622,543.674,157.237,543.398"/>
	<path fill="#003663" d="M160.664,543.02c0.186,0,0.323,0.137,0.323,0.324v0.137c0,0.188-0.137,0.33-0.323,0.33
		c-0.193,0-0.33-0.143-0.33-0.33v-0.137C160.334,543.156,160.471,543.02,160.664,543.02"/>
	<path fill="#003663" d="M168.317,541.383v-0.016c0-1.094-0.798-1.988-1.899-1.988s-1.886,0.881-1.886,1.975v0.014
		c0,1.096,0.798,1.99,1.899,1.99S168.317,542.477,168.317,541.383 M163.967,541.383v-0.016c0-1.326,0.998-2.49,2.464-2.49
		s2.45,1.148,2.45,2.477v0.014c0,1.328-0.997,2.492-2.463,2.492C164.952,543.859,163.967,542.711,163.967,541.383"/>
	<path fill="#003663" d="M172.68,543.543c0,0.145-0.11,0.268-0.261,0.268c-0.145,0-0.262-0.117-0.262-0.268v-0.387
		c-0.241,0.387-0.606,0.695-1.218,0.695c-0.861,0-1.363-0.578-1.363-1.424v-1.975c0-0.152,0.11-0.27,0.262-0.27
		c0.144,0,0.268,0.117,0.268,0.27v1.844c0,0.662,0.358,1.074,0.985,1.074c0.605,0,1.066-0.447,1.066-1.115v-1.803
		c0-0.152,0.11-0.27,0.262-0.27c0.144,0,0.261,0.117,0.261,0.27V543.543z"/>
	<path fill="#003663" d="M173.698,540.453c0-0.145,0.118-0.27,0.262-0.27c0.152,0,0.268,0.117,0.268,0.27v0.668
		c0.262-0.594,0.778-0.951,1.226-0.951c0.158,0,0.261,0.117,0.261,0.27c0,0.145-0.096,0.246-0.234,0.268
		c-0.688,0.084-1.253,0.6-1.253,1.625v1.211c0,0.145-0.11,0.268-0.261,0.268c-0.151,0-0.269-0.117-0.269-0.268V540.453z"/>
	<path fill="#003663" d="M179.569,539.461h-1.397c-0.138,0-0.255-0.109-0.255-0.246c0-0.139,0.117-0.256,0.255-0.256h3.345
		c0.137,0,0.254,0.117,0.254,0.256c0,0.137-0.117,0.246-0.254,0.246h-1.398v4.076c0,0.15-0.123,0.273-0.275,0.273
		c-0.151,0-0.275-0.123-0.275-0.273V539.461z"/>
	<path fill="#003663" d="M184.476,542.016v-0.014c0-0.766-0.571-1.391-1.322-1.391c-0.77,0-1.3,0.625-1.3,1.377v0.014
		c0,0.764,0.564,1.383,1.315,1.383C183.939,543.385,184.476,542.766,184.476,542.016 M181.31,542.016v-0.014
		c0-1.006,0.785-1.859,1.859-1.859c1.066,0,1.851,0.84,1.851,1.846v0.014c0,1.004-0.792,1.857-1.866,1.857
		C182.088,543.859,181.31,543.02,181.31,542.016"/>
	<path fill="#003663" d="M185.666,540.453c0-0.145,0.117-0.27,0.262-0.27c0.151,0,0.268,0.117,0.268,0.27v0.363
		c0.235-0.35,0.551-0.674,1.15-0.674c0.578,0,0.95,0.311,1.143,0.709c0.254-0.391,0.633-0.709,1.252-0.709
		c0.819,0,1.322,0.551,1.322,1.432v1.969c0,0.15-0.118,0.268-0.262,0.268c-0.152,0-0.269-0.117-0.269-0.268v-1.846
		c0-0.688-0.344-1.072-0.922-1.072c-0.536,0-0.977,0.398-0.977,1.102v1.816c0,0.15-0.117,0.268-0.269,0.268
		c-0.144,0-0.261-0.117-0.261-0.268v-1.859c0-0.666-0.351-1.059-0.916-1.059c-0.564,0-0.991,0.469-0.991,1.121v1.797
		c0,0.15-0.11,0.268-0.261,0.268c-0.152,0-0.269-0.117-0.269-0.268V540.453z"/>
	<path fill="#003663" d="M194.985,542.016v-0.014c0-0.766-0.571-1.391-1.322-1.391c-0.77,0-1.3,0.625-1.3,1.377v0.014
		c0,0.764,0.564,1.383,1.314,1.383C194.448,543.385,194.985,542.766,194.985,542.016 M191.819,542.016v-0.014
		c0-1.006,0.785-1.859,1.858-1.859c1.067,0,1.852,0.84,1.852,1.846v0.014c0,1.004-0.792,1.857-1.866,1.857
		C192.597,543.859,191.819,543.02,191.819,542.016"/>
	<path fill="#003663" d="M196.175,540.453c0-0.145,0.117-0.27,0.262-0.27c0.151,0,0.268,0.117,0.268,0.27v0.668
		c0.262-0.594,0.778-0.951,1.225-0.951c0.159,0,0.261,0.117,0.261,0.27c0,0.145-0.095,0.246-0.233,0.268
		c-0.688,0.084-1.253,0.6-1.253,1.625v1.211c0,0.145-0.111,0.268-0.262,0.268c-0.151,0-0.268-0.117-0.268-0.268V540.453z"/>
	<path fill="#003663" d="M198.928,540.453c0-0.145,0.117-0.27,0.262-0.27c0.151,0,0.268,0.117,0.268,0.27v0.668
		c0.262-0.594,0.778-0.951,1.225-0.951c0.158,0,0.262,0.117,0.262,0.27c0,0.145-0.097,0.246-0.235,0.268
		c-0.688,0.084-1.252,0.6-1.252,1.625v1.211c0,0.145-0.11,0.268-0.262,0.268c-0.151,0-0.268-0.117-0.268-0.268V540.453z"/>
	<path fill="#003663" d="M204.489,542.016v-0.014c0-0.766-0.571-1.391-1.322-1.391c-0.77,0-1.3,0.625-1.3,1.377v0.014
		c0,0.764,0.564,1.383,1.314,1.383C203.952,543.385,204.489,542.766,204.489,542.016 M201.323,542.016v-0.014
		c0-1.006,0.785-1.859,1.858-1.859c1.067,0,1.852,0.84,1.852,1.846v0.014c0,1.004-0.792,1.857-1.866,1.857
		C202.101,543.859,201.323,543.02,201.323,542.016"/>
	<path fill="#003663" d="M206.684,543.592l-1.081-3.008c-0.013-0.041-0.034-0.098-0.034-0.145c0-0.131,0.11-0.256,0.268-0.256
		c0.138,0,0.228,0.09,0.269,0.221l0.894,2.67l0.902-2.676c0.042-0.125,0.124-0.215,0.262-0.215h0.028
		c0.144,0,0.233,0.09,0.274,0.215l0.896,2.676l0.908-2.684c0.034-0.111,0.11-0.207,0.254-0.207c0.152,0,0.262,0.117,0.262,0.248
		c0,0.049-0.021,0.104-0.034,0.145l-1.088,3.016c-0.055,0.158-0.165,0.24-0.289,0.24h-0.02c-0.138,0-0.241-0.082-0.289-0.24
		l-0.888-2.596l-0.895,2.596c-0.048,0.158-0.151,0.24-0.289,0.24h-0.014C206.849,543.832,206.739,543.75,206.684,543.592"/>
	<path fill="#003663" d="M211.529,543.02c0.186,0,0.324,0.137,0.324,0.324v0.137c0,0.188-0.138,0.33-0.324,0.33
		c-0.193,0-0.33-0.143-0.33-0.33v-0.137C211.199,543.156,211.336,543.02,211.529,543.02"/>
	<path fill="#C4161C" d="M103.64,526.688c0,0.641-0.225,1.188-0.678,1.639c-0.453,0.453-0.999,0.682-1.642,0.682
		c-0.641,0-1.188-0.229-1.641-0.682c-0.453-0.451-0.679-0.998-0.679-1.639c0-0.643,0.227-1.189,0.679-1.643
		c0.453-0.451,1-0.678,1.641-0.678c0.644,0,1.189,0.227,1.642,0.678C103.415,525.498,103.64,526.045,103.64,526.688"/>
	<path fill="#C4161C" d="M103.687,541.494c0,0.662-0.229,1.223-0.686,1.68c-0.459,0.459-1.018,0.688-1.682,0.688
		c-0.661,0-1.222-0.229-1.681-0.688c-0.458-0.457-0.686-1.018-0.686-1.68v-9.691c0-0.664,0.228-1.223,0.686-1.682
		c0.459-0.459,1.02-0.688,1.681-0.688c0.664,0,1.223,0.229,1.682,0.688c0.457,0.459,0.686,1.018,0.686,1.682V541.494z"/>
	<path fill="#0088A3" d="M108.375,522.867c0,0.641-0.225,1.188-0.678,1.641s-0.999,0.68-1.642,0.68c-0.64,0-1.188-0.227-1.641-0.68
		s-0.679-1-0.679-1.641c0-0.643,0.227-1.189,0.679-1.641c0.453-0.453,1.001-0.68,1.641-0.68c0.644,0,1.189,0.227,1.642,0.68
		C108.15,521.678,108.375,522.225,108.375,522.867"/>
	<path fill="#0088A3" d="M108.422,541.494c0,0.662-0.229,1.223-0.687,1.68c-0.459,0.459-1.019,0.688-1.681,0.688
		c-0.661,0-1.223-0.229-1.681-0.688c-0.458-0.457-0.687-1.018-0.687-1.68v-13.512c0-0.664,0.229-1.223,0.687-1.682
		c0.458-0.459,1.02-0.688,1.681-0.688c0.663,0,1.222,0.229,1.681,0.688c0.458,0.459,0.687,1.018,0.687,1.682V541.494z"/>
	<path fill="#FDB714" d="M113.11,525.297c0,0.641-0.225,1.188-0.679,1.639c-0.453,0.453-0.999,0.68-1.641,0.68
		c-0.641,0-1.188-0.227-1.641-0.68c-0.453-0.451-0.68-0.998-0.68-1.639c0-0.643,0.227-1.189,0.68-1.643s1-0.68,1.641-0.68
		c0.643,0,1.188,0.227,1.641,0.68C112.885,524.107,113.11,524.654,113.11,525.297"/>
	<path fill="#FDB714" d="M113.158,541.494c0,0.662-0.229,1.223-0.687,1.68c-0.458,0.459-1.018,0.688-1.681,0.688
		c-0.662,0-1.223-0.229-1.681-0.688c-0.458-0.457-0.687-1.018-0.687-1.68V530.41c0-0.662,0.229-1.223,0.687-1.68
		c0.458-0.461,1.02-0.688,1.681-0.688c0.663,0,1.222,0.227,1.681,0.688c0.458,0.457,0.687,1.018,0.687,1.68V541.494z"/>
	<path fill="#F15827" d="M117.846,528.549c0,0.643-0.226,1.189-0.68,1.641c-0.452,0.453-0.998,0.68-1.641,0.68
		c-0.64,0-1.188-0.227-1.641-0.68c-0.454-0.451-0.68-0.998-0.68-1.641s0.226-1.189,0.68-1.641c0.453-0.453,1-0.68,1.641-0.68
		c0.643,0,1.189,0.227,1.641,0.68C117.62,527.359,117.846,527.906,117.846,528.549"/>
	<path fill="#F15827" d="M117.893,541.494c0,0.662-0.229,1.223-0.687,1.68c-0.458,0.459-1.018,0.688-1.681,0.688
		c-0.661,0-1.222-0.229-1.681-0.688c-0.458-0.457-0.687-1.018-0.687-1.68v-7.83c0-0.662,0.229-1.223,0.687-1.682
		c0.458-0.459,1.02-0.686,1.681-0.686c0.663,0,1.223,0.227,1.681,0.686c0.458,0.459,0.687,1.02,0.687,1.682V541.494z"/>
	<path fill="#92C83E" d="M122.581,525.201c0,0.641-0.226,1.189-0.679,1.641c-0.453,0.453-0.998,0.68-1.641,0.68
		c-0.641,0-1.189-0.227-1.642-0.68c-0.453-0.451-0.679-1-0.679-1.641s0.226-1.188,0.679-1.641c0.453-0.453,1.001-0.678,1.642-0.678
		c0.643,0,1.188,0.225,1.641,0.678C122.355,524.014,122.581,524.561,122.581,525.201"/>
	<path fill="#92C83E" d="M122.628,541.494c0,0.662-0.229,1.223-0.687,1.68c-0.459,0.459-1.018,0.688-1.681,0.688
		c-0.662,0-1.222-0.229-1.681-0.688c-0.458-0.457-0.687-1.018-0.687-1.68v-11.178c0-0.664,0.229-1.223,0.687-1.68
		c0.459-0.459,1.02-0.689,1.681-0.689c0.663,0,1.222,0.23,1.681,0.689c0.458,0.457,0.687,1.016,0.687,1.68V541.494z"/>
	<path fill="#FFFFFF" d="M110.743,534.326c0,0.641-0.225,1.189-0.679,1.643c-0.453,0.453-0.999,0.678-1.642,0.678
		c-0.64,0-1.189-0.225-1.642-0.678c-0.452-0.453-0.678-1.002-0.678-1.643s0.226-1.188,0.678-1.641
		c0.453-0.453,1.001-0.678,1.642-0.678c0.643,0,1.189,0.225,1.642,0.678C110.518,533.139,110.743,533.686,110.743,534.326"/>
	<path fill="#FFFFFF" d="M110.79,541.494c0,0.662-0.229,1.223-0.687,1.68c-0.459,0.459-1.018,0.688-1.681,0.688
		c-0.662,0-1.222-0.229-1.681-0.688c-0.458-0.457-0.687-1.018-0.687-1.68v-2.053c0-0.664,0.229-1.223,0.687-1.68
		c0.459-0.459,1.019-0.689,1.681-0.689c0.663,0,1.222,0.23,1.681,0.689c0.458,0.457,0.687,1.016,0.687,1.68V541.494z"/>
	<path fill="#C4161C" d="M127.316,526.688c0,0.641-0.225,1.188-0.679,1.639c-0.453,0.453-0.998,0.682-1.642,0.682
		c-0.641,0-1.188-0.229-1.642-0.682c-0.452-0.451-0.679-0.998-0.679-1.639c0-0.643,0.227-1.189,0.679-1.643
		c0.453-0.451,1.001-0.678,1.642-0.678c0.644,0,1.189,0.227,1.642,0.678C127.091,525.498,127.316,526.045,127.316,526.688"/>
	<path fill="#C4161C" d="M127.364,541.494c0,0.662-0.229,1.223-0.687,1.68c-0.459,0.459-1.018,0.688-1.681,0.688
		c-0.662,0-1.223-0.229-1.681-0.688c-0.458-0.457-0.686-1.018-0.686-1.68v-9.691c0-0.664,0.228-1.223,0.686-1.682
		c0.458-0.459,1.02-0.688,1.681-0.688c0.663,0,1.222,0.229,1.681,0.688c0.458,0.459,0.687,1.018,0.687,1.682V541.494z"/>
	
		<line fill="none" stroke="#C7C8CA" stroke-width="0.81" stroke-linecap="round" stroke-linejoin="round" stroke-dasharray="0,2.4461" x1="94.923" y1="210.304" x2="274.711" y2="210.304"/>
</g>
<text transform="matrix(1 0 0 1 92.646 172.9712)"><tspan x="0" y="0" fill="#003663" font-family="'GothamNarrow-Book'" font-size="24">Our Kids.</tspan><tspan x="0" y="28.8" fill="#003663" font-family="'GothamNarrow-Book'" font-size="24">Our Tomorrow.</tspan></text>
<text transform="matrix(1 0 0 1 93.4014 222.3042)"><tspan x="0" y="0" fill="#003663" font-family="'GothamNarrow-Book'" font-size="8">THE COMMIT</tspan><tspan x="45.263" y="0" fill="#BE2526" font-family="'GothamNarrow-Book'" font-size="8">!</tspan><tspan x="47.263" y="0" fill="#003663" font-family="'GothamNarrow-Book'" font-size="8"> PARTNERSHIP</tspan></text>
<text transform="matrix(1 0 0 1 94.4351 235.8042)" fill="#003663" font-family="'GothamNarrow-Book'" font-size="8">2013 COMMUNITY ACHIEVEMENT SCORECARD</text>
</svg>
